<?xml version="1.0" encoding="UTF-8" standalone="no" ?>
<!DOCTYPE svg PUBLIC "-//W3C//DTD SVG 1.1//EN" "http://www.w3.org/Graphics/SVG/1.1/DTD/svg11.dtd">
<svg xmlns="http://www.w3.org/2000/svg" xmlns:xlink="http://www.w3.org/1999/xlink" version="1.1" width="1080" height="1080" viewBox="0 0 1080 1080" xml:space="preserve">
<desc>Created with Fabric.js 5.2.4</desc>
<defs>
</defs>
<g transform="matrix(1 0 0 1 540 540)" id="d927f20f-5ab4-46ca-852d-3ae34dc83b6b"  >
<rect style="stroke: none; stroke-width: 1; stroke-dasharray: none; stroke-linecap: butt; stroke-dashoffset: 0; stroke-linejoin: miter; stroke-miterlimit: 4; fill: rgb(255,255,255); fill-rule: nonzero; opacity: 1; visibility: hidden;" vector-effect="non-scaling-stroke"  x="-540" y="-540" rx="0" ry="0" width="1080" height="1080" />
</g>
<g transform="matrix(1 0 0 1 540 540)" id="1dda00fc-a8fb-49d8-9e58-4c4cb1b0210a"  >
</g>
<g transform="matrix(2.81 0 0 2.81 540 540)"  >
<g style="" vector-effect="non-scaling-stroke"   >
		<g transform="matrix(1 0 0 1 0.11 161.18)" id="path0"  >
<path style="stroke: none; stroke-width: 1; stroke-dasharray: none; stroke-linecap: butt; stroke-dashoffset: 0; stroke-linejoin: miter; stroke-miterlimit: 4; fill: rgb(250,218,43); fill-rule: evenodd; opacity: 1;" vector-effect="non-scaling-stroke"  transform=" translate(-200.65, -473.02)" d="M 230.122 455.314 C 212.539 458.506 211.847 487.044 229.265 490.66 C 234.007 491.645 238.957 490.555 241.925 487.875 C 243.112 486.802 243.327 486.712 243.587 487.177 C 244.972 489.652 245.981 490.484 247.597 490.484 L 249.194 490.484 L 249.28 482.136 C 249.341 476.248 249.258 473.659 248.998 473.346 C 248.41 472.638 233.695 472.701 233.422 473.413 C 233.141 474.143 233.189 478.152 233.483 478.615 C 233.635 478.855 234.777 479.04 236.462 479.099 C 239.907 479.218 240.016 481.364 236.668 483.13 C 230.722 486.267 226.416 479.079 228.037 468.722 C 229.25 460.975 236.767 459.697 239.024 466.855 C 239.47 468.272 239.369 468.258 244.133 467.559 C 249.687 466.744 249.808 466.57 247.652 462.48 C 244.706 456.894 237.544 453.967 230.122 455.314 M 303.028 455.144 C 285.152 457.95 283.682 485.926 301.171 490.481 C 312.64 493.469 322.189 486.336 322.805 474.322 C 323.453 461.691 314.796 453.296 303.028 455.144 M 338.129 455.149 C 329.49 456.503 324.779 463.364 327.749 470.267 C 329.302 473.879 332.486 475.851 339.355 477.459 C 345.586 478.917 347.018 479.85 346.074 481.838 C 344.678 484.774 337.569 484.525 334.217 481.422 C 331.887 479.264 331.999 479.26 328.604 481.629 C 325.397 483.867 325.262 484.234 326.956 486.11 C 332.384 492.117 347.117 492.739 353.228 487.218 C 357.484 483.373 357.416 475.323 353.098 471.785 C 351.259 470.278 350.112 469.829 343.922 468.199 C 337.343 466.465 336.117 465.701 337.068 463.925 C 338.394 461.447 344.386 461.684 347.486 464.337 C 348.21 464.957 348.963 465.372 349.16 465.259 C 350.848 464.29 354.839 461.153 354.839 460.796 C 354.839 457.546 344.7 454.12 338.129 455.149 M 11.442 455.878 C 11.355 456.105 11.322 463.984 11.368 473.387 L 11.452 490.484 L 15.645 490.484 L 19.839 490.484 L 20 481.129 L 20.161 471.774 L 23.226 475.923 C 24.911 478.204 28.032 482.414 30.161 485.277 L 34.032 490.484 L 38.065 490.484 L 42.097 490.484 L 42.18 472.974 L 42.264 455.465 L 38.148 455.555 L 34.032 455.645 L 33.871 463.952 C 33.782 468.521 33.588 472.295 33.439 472.339 C 33.291 472.383 30.459 468.645 27.147 464.032 L 21.124 455.645 L 16.362 455.556 C 12.73 455.488 11.562 455.564 11.442 455.878 M 47.638 455.695 C 47.218 456.115 47.383 489.834 47.806 490.258 C 48.259 490.71 74.065 490.819 74.77 490.372 C 75.076 490.178 75.16 489.188 75.092 486.587 L 75 483.065 L 66.613 482.903 L 58.226 482.742 L 58.226 479.839 L 58.226 476.935 L 63.226 476.774 L 68.226 476.613 L 68.317 472.993 C 68.425 468.688 68.96 469.065 62.581 468.95 L 58.226 468.871 L 58.226 466.129 L 58.226 463.387 L 66.183 463.226 C 70.56 463.137 74.262 462.944 74.409 462.797 C 74.557 462.649 74.677 460.98 74.677 459.087 L 74.677 455.645 L 61.267 455.561 C 53.891 455.515 47.758 455.575 47.638 455.695 M 79.57 455.699 C 79.044 456.225 79.333 490.245 79.865 490.449 C 82.164 491.331 101.338 490.456 104.343 489.332 C 112.304 486.353 112.639 476.843 104.907 473.303 L 103.171 472.508 L 105.29 471.239 C 113.207 466.498 110.067 457.463 99.931 455.818 C 97.706 455.457 79.916 455.353 79.57 455.699 M 114.327 455.924 C 113.688 457.589 114.389 481.185 115.134 483.065 C 117.313 488.568 120.663 490.622 127.903 490.891 C 137.089 491.233 141.888 488.578 143.8 482.097 C 144.301 480.398 144.807 457.975 144.382 456.283 C 144.181 455.484 144.18 455.484 140 455.484 C 134.915 455.484 135.508 453.792 135.404 468.606 C 135.326 479.823 135.297 480.311 134.657 481.167 C 132.301 484.321 127.484 484.367 125.645 481.254 C 125.039 480.227 124.99 479.421 124.839 467.903 L 124.677 455.645 L 119.59 455.556 C 115.44 455.484 114.47 455.552 114.327 455.924 M 149.255 455.691 C 148.833 456.114 148.993 489.831 149.419 490.258 C 149.975 490.814 174.863 490.814 175.419 490.258 C 175.856 489.821 175.961 483.969 175.544 483.312 C 175.358 483.02 173.253 482.892 167.565 482.829 L 159.839 482.742 L 159.677 469.194 L 159.516 455.645 L 154.497 455.557 C 151.737 455.508 149.378 455.568 149.255 455.691 M 190.372 455.909 C 189.78 456.621 178.358 489.148 178.456 489.839 C 178.542 490.439 178.826 490.489 182.581 490.565 C 187.453 490.663 187.158 490.837 188.459 487.083 L 189.516 484.032 L 195.161 483.947 L 200.806 483.861 L 201.944 487.172 L 203.081 490.484 L 208.391 490.484 C 213.058 490.484 213.713 490.42 213.803 489.954 C 213.889 489.507 208.581 473.916 203.824 460.645 C 201.79 454.972 202.55 455.484 196.161 455.484 C 192.058 455.484 190.638 455.588 190.372 455.909 M 253.758 456.048 C 253.672 456.359 253.699 464.234 253.817 473.548 L 254.032 490.484 L 258.71 490.564 C 264.861 490.67 264.323 491.342 264.516 483.319 L 264.677 476.613 L 269.355 476.613 L 274.032 476.613 L 274.12 483.201 C 274.228 491.359 273.707 490.684 279.804 490.573 L 284.677 490.484 L 284.677 473.065 L 284.677 455.645 L 279.516 455.645 L 274.355 455.645 L 274.194 461.935 L 274.032 468.226 L 269.355 468.226 L 264.677 468.226 L 264.498 461.935 C 264.4 458.476 264.291 455.609 264.257 455.565 C 263.892 455.097 253.894 455.558 253.758 456.048 M 359.57 455.699 C 359.452 455.817 359.355 457.487 359.355 459.409 L 359.355 462.903 L 364.194 462.903 L 369.032 462.903 L 369.032 476.15 C 369.032 484.665 369.152 489.62 369.366 490.021 C 369.673 490.595 370.085 490.645 374.516 490.645 C 378.947 490.645 379.359 490.595 379.666 490.021 C 379.881 489.62 380 484.667 380 476.159 L 380 462.92 L 384.919 462.831 L 389.839 462.742 L 389.931 459.564 C 389.992 457.497 389.893 456.228 389.65 455.935 C 389.253 455.456 360.042 455.227 359.57 455.699 M 308.378 462.737 C 312.754 465 313.007 480.533 308.709 483.043 C 306.425 484.377 302.88 483.619 301.606 481.525 C 299.709 478.404 299.799 467.324 301.746 464.352 C 303.014 462.418 306.241 461.632 308.378 462.737 M 97.935 463.677 C 100.835 466.577 98.447 469.326 93.01 469.347 C 89.949 469.359 90 469.416 90 465.987 C 90 462.353 89.757 462.581 93.634 462.581 L 96.839 462.581 L 97.935 463.677 M 196.933 470.783 C 198.757 475.973 198.821 475.806 194.981 475.806 C 191.3 475.806 191.397 476.121 193.387 470.645 C 194.185 468.448 194.839 466.606 194.839 466.551 C 194.839 465.556 195.727 467.35 196.933 470.783 M 97.669 477.098 C 99.644 478.302 99.884 480.399 98.251 482.182 L 97.148 483.387 L 93.655 483.387 L 90.161 483.387 L 90.068 480.347 C 90.016 478.675 90.048 477.114 90.138 476.879 C 90.426 476.128 96.362 476.301 97.669 477.098" stroke-linecap="round" />
</g>
		<g transform="matrix(1 0 0 1 -9.26 -12.54)" id="path1"  >
<path style="stroke: none; stroke-width: 1; stroke-dasharray: none; stroke-linecap: butt; stroke-dashoffset: 0; stroke-linejoin: miter; stroke-miterlimit: 4; fill: rgb(75,97,203); fill-rule: evenodd; opacity: 1;" vector-effect="non-scaling-stroke"  transform=" translate(-191.27, -299.31)" d="M 183.226 132.907 C 171.225 134.297 158.118 138.455 149.982 143.452 C 149.174 143.949 147.795 144.783 146.917 145.306 C 145.473 146.168 143.573 147.534 138.871 151.094 C 132.681 155.779 124.013 165.579 120.161 172.248 C 119.629 173.169 118.867 174.426 118.468 175.04 C 118.069 175.655 117.741 176.333 117.74 176.547 C 117.739 176.76 117.44 177.371 117.075 177.903 C 115.103 180.785 111.449 190.643 110.162 196.552 C 109.414 199.986 108.951 200.432 104.881 201.64 C 100.197 203.029 98.19 204.635 96.298 208.505 L 95.488 210.161 L 95.42 223.387 L 95.351 236.613 L 96.305 238.51 C 98.594 243.065 102.326 245.451 107.578 245.717 C 109.363 245.807 111.104 246.066 111.472 246.295 L 112.138 246.711 L 112.014 281.984 L 111.891 317.258 L 109.796 324.338 C 102.127 350.251 101.556 376.374 108.283 393.548 C 110.692 399.698 117 402.642 122.017 399.956 C 123.534 399.145 124.811 399.091 127.341 399.734 C 130.887 400.635 131.203 400.897 131.434 403.137 C 131.539 404.162 131.907 407.25 132.252 410 C 132.596 412.75 132.971 416.379 133.086 418.065 C 133.201 419.75 133.56 422.508 133.885 424.194 C 134.209 425.879 134.567 428.419 134.68 429.839 C 134.793 431.258 135.155 433.363 135.483 434.516 C 135.811 435.669 136.177 437.484 136.296 438.548 C 136.414 439.613 136.717 441.203 136.967 442.081 L 137.423 443.679 L 136.251 444.879 C 135.606 445.54 134.751 446.162 134.35 446.263 C 133.295 446.527 130.356 448.518 128.948 449.92 C 124.395 454.457 125.855 462.115 131.846 465.122 C 135.108 466.759 135.484 466.62 135.484 463.774 L 135.484 461.42 L 134.377 461.02 C 128.328 458.832 130.753 452.417 138.679 449.643 C 142.659 448.25 143.433 446.451 141.932 442.087 C 141.575 441.05 141.146 439.031 140.977 437.601 C 140.808 436.17 140.519 434.493 140.335 433.873 C 139.009 429.412 139.785 429.117 150.096 430.166 C 155.718 430.738 163.433 430.775 168.934 430.255 C 171.206 430.04 174.516 429.859 176.29 429.852 L 179.516 429.839 L 180.053 430.968 C 180.699 432.324 181.367 439.27 181.031 441.129 C 180.778 442.526 181.025 442.394 174.516 444.61 C 173.292 445.027 168.065 450.007 168.065 450.757 C 168.065 451.001 167.722 451.705 167.304 452.321 C 166.886 452.937 166.439 454.01 166.312 454.705 C 166.185 455.399 165.874 456.29 165.62 456.684 C 165.366 457.079 165.004 458.122 164.815 459.002 C 164.381 461.027 164.115 461.232 161.763 461.353 L 159.839 461.452 L 159.839 463.71 L 159.839 465.968 L 169.166 466.053 C 177.72 466.132 178.589 466.09 179.65 465.54 C 180.286 465.211 181.17 464.852 181.614 464.743 C 182.775 464.457 185.723 461.399 186.156 460.033 C 186.358 459.394 186.758 458.508 187.045 458.065 C 187.728 457.008 187.689 453.947 186.963 451.613 C 185.343 446.406 185.314 408.677 186.926 404.063 C 187.23 403.192 187.601 401.16 187.75 399.547 C 188.179 394.91 190.422 393.406 193.456 395.719 C 194.574 396.572 194.68 396.931 194.987 400.907 C 195.087 402.205 195.396 403.802 195.674 404.456 C 197.258 408.194 197.233 446.083 195.643 451.196 C 195.356 452.12 195.166 453.427 195.222 454.099 L 195.323 455.323 L 197.547 455.323 L 199.771 455.323 L 200.159 453.871 C 200.372 453.073 200.712 451.558 200.914 450.506 C 201.312 448.428 201.615 448.077 203.019 448.069 C 203.959 448.064 207.742 449.884 207.742 450.341 C 207.742 450.479 208.25 450.907 208.871 451.29 C 209.492 451.674 210 452.174 210 452.402 C 210 452.63 210.297 453.194 210.66 453.656 C 211.253 454.409 211.583 455.68 212.154 459.404 C 212.413 461.096 211.717 461.374 207.548 461.238 C 205.703 461.178 204.193 461.21 204.193 461.308 C 204.193 461.407 204.533 462.495 204.949 463.727 L 205.704 465.968 L 211.643 466.03 L 217.581 466.093 L 218.76 463.692 C 219.474 462.239 219.785 461.29 219.548 461.29 C 218.638 461.29 218.004 460.301 216.964 457.258 C 214.036 448.687 210.704 445.111 203.871 443.203 C 201.511 442.544 201.443 442.401 201.518 438.256 C 201.685 429.081 201.679 429.087 211.613 430.161 C 216.583 430.699 225.021 430.764 230 430.304 C 236.806 429.674 241.241 429.557 241.766 429.993 C 242.643 430.721 242.125 435.434 240.457 441.89 C 239.181 446.833 239.687 448.389 242.892 449.381 C 247.071 450.673 250.775 453.325 251.144 455.287 C 251.62 457.828 250.053 460.618 247.837 461.175 L 247.119 461.355 L 247.914 462.925 C 248.352 463.788 248.71 464.709 248.71 464.97 C 248.71 466.111 250.156 465.732 252.5 463.978 L 253.548 463.193 L 253.553 459.742 C 253.559 455.941 253.66 455.601 254.839 455.436 C 257.716 455.032 251.684 446.452 248.522 446.452 C 247.752 446.452 245.161 444.098 245.161 443.398 C 245.161 443.009 245.53 440.887 245.981 438.684 C 247.495 431.285 248.427 425.363 249.048 419.194 C 249.388 415.823 249.813 411.794 249.994 410.242 C 250.175 408.69 250.453 406.168 250.612 404.639 C 250.953 401.366 251.321 400.857 253.894 400.105 C 256.867 399.236 258.533 399.21 260.649 400.001 C 267.648 402.619 273.054 398.8 275.492 389.516 C 275.818 388.274 276.295 386.605 276.552 385.806 C 277.013 384.372 277.856 379.708 278.447 375.323 C 279.036 370.959 278.805 353.841 278.101 349.677 C 277.757 347.637 277.379 345.097 277.262 344.032 C 277.145 342.968 276.778 341.008 276.446 339.677 C 276.114 338.347 275.752 336.46 275.642 335.484 C 275.449 333.773 274.406 329.79 273.362 326.774 C 273.086 325.976 272.595 324.379 272.272 323.226 C 271.949 322.073 271.415 320.548 271.084 319.839 C 270.16 317.852 269.952 246.666 270.869 246.194 C 271.19 246.029 272.989 245.811 274.868 245.71 C 280.225 245.421 283.939 243.115 286.141 238.71 L 287.189 236.613 L 287.135 223.302 L 287.08 209.992 L 285.945 207.927 C 284.874 205.977 283.005 203.933 281.263 202.806 C 280.834 202.529 279.046 201.939 277.289 201.495 C 273.352 200.501 273.026 200.193 272.4 196.874 C 272.129 195.436 271.395 192.829 270.769 191.081 C 270.144 189.333 269.362 187.032 269.032 185.968 C 267.902 182.327 263.588 174.212 259.837 168.674 C 243.249 144.183 211.965 129.577 183.226 132.907 M 200.046 137.746 C 206.974 138.423 220.045 141.987 222.4 143.84 C 222.588 143.988 223.323 144.295 224.032 144.523 C 232.425 147.211 248.259 160.22 254.839 169.834 C 255.282 170.482 255.95 171.401 256.323 171.877 C 257.024 172.771 262.258 182.106 262.258 182.461 C 262.258 182.649 263.109 184.716 264.575 188.085 C 264.927 188.894 265.215 190.254 265.215 191.106 C 265.215 193.012 264.678 193.73 264.355 192.257 C 264.23 191.689 263.85 190.946 263.51 190.606 C 263.17 190.266 262.567 189.356 262.171 188.584 C 261.421 187.118 259.207 183.648 258.136 182.258 C 257.795 181.815 256.823 180.435 255.977 179.194 C 254.133 176.487 246.476 168.453 243.371 165.968 C 242.707 165.435 241.584 164.524 240.877 163.941 C 238.955 162.358 234.387 159.353 231.29 157.635 C 229.782 156.798 228.331 155.983 228.065 155.824 C 226.096 154.647 219.737 152.086 217.62 151.617 C 216.755 151.426 215.779 151.126 215.451 150.95 C 214.336 150.353 208.562 148.973 204.516 148.336 C 192.422 146.433 179.806 147.493 166.439 151.536 C 162.1 152.848 152.691 157.465 148.728 160.228 C 147.762 160.901 146.585 161.669 146.112 161.935 C 143.802 163.235 137.567 168.599 133.95 172.397 C 127.379 179.298 120.187 190.729 117.271 198.908 C 116.884 199.992 116.251 201.282 115.864 201.774 C 115.478 202.265 115.161 202.866 115.161 203.108 C 115.161 203.35 115.016 203.548 114.839 203.548 C 114.264 203.548 114.327 197.914 114.918 196.462 C 115.101 196.013 115.58 194.484 115.983 193.065 C 116.931 189.728 118.283 185.841 118.658 185.37 C 118.821 185.166 119.469 183.82 120.098 182.377 C 124.148 173.097 131.618 163.496 141.298 155.13 C 151.845 146.014 168.47 139.076 183.226 137.633 C 185.895 137.372 196.982 137.446 200.046 137.746 M 204.839 153.188 C 218.79 156.065 226.552 159.423 237.105 167.151 C 240.518 169.65 247.266 175.889 249.085 178.226 C 249.775 179.113 250.925 180.565 251.641 181.452 C 254.316 184.765 257.337 189.715 260.146 195.385 C 261.731 198.586 262.488 200.648 264.865 208.235 C 265.446 210.088 266.36 215.344 267.134 221.29 C 268.028 228.144 266.896 239.451 264.86 244.011 C 264.538 244.732 264.101 245.865 263.888 246.528 C 263.675 247.191 263.378 247.809 263.227 247.903 C 263.076 247.996 262.702 248.832 262.395 249.762 C 262.088 250.691 261.098 252.558 260.193 253.909 C 259.288 255.261 258.394 256.63 258.205 256.951 C 256.819 259.307 256.782 255.322 258.166 252.764 C 258.448 252.244 258.777 251.01 258.897 250.022 C 259.018 249.034 259.371 247.573 259.682 246.774 C 262.461 239.643 262.484 216.858 259.718 211.69 C 259.519 211.316 259.132 209.948 258.86 208.65 C 256.866 199.152 248.188 185.276 239.006 176.904 C 237.69 175.703 236.54 174.634 236.452 174.527 C 235.903 173.865 229.109 169.043 226.799 167.676 C 218.877 162.988 208.334 159.498 199.17 158.532 C 192.031 157.778 183.171 158.132 177.258 159.405 C 174.696 159.957 166.413 162.457 164.83 163.157 C 159.865 165.351 158.183 166.2 154.85 168.192 C 151.027 170.476 150.763 170.658 147.335 173.361 C 143.085 176.711 135.365 184.833 134.102 187.282 C 133.821 187.827 133.361 188.464 133.079 188.697 C 132.413 189.251 128.15 196.433 127.672 197.808 C 127.468 198.393 126.766 199.887 126.11 201.129 C 125.454 202.371 124.457 205.056 123.893 207.097 C 123.33 209.137 122.602 211.605 122.275 212.581 C 119.575 220.645 119.879 238.353 122.88 247.849 C 123.562 250.008 124.227 252.427 124.357 253.226 C 124.486 254.024 124.805 255.092 125.064 255.599 C 125.356 256.169 125.451 256.847 125.313 257.373 L 125.09 258.226 L 124.583 257.177 C 124.305 256.601 123.889 256.129 123.659 256.129 C 123.43 256.129 122.998 255.657 122.7 255.081 C 122.402 254.504 121.906 253.669 121.598 253.226 C 119.521 250.235 117.495 240.255 116.917 230.161 C 116.427 221.603 119.026 205.663 121.781 200.323 C 122.01 199.879 122.559 198.718 123.001 197.742 C 125.389 192.473 126.161 191.046 129.46 185.806 C 136.395 174.791 151.175 162.419 162.419 158.218 C 163.484 157.82 165.444 157.05 166.774 156.506 C 170.229 155.094 175.852 153.73 181.452 152.945 C 184.113 152.572 186.726 152.203 187.258 152.126 C 190.484 151.657 200.284 152.249 204.839 153.188 M 199.454 163.373 C 217.007 165.55 231.872 174.117 243.662 188.85 C 244.523 189.926 245.508 191.315 245.851 191.935 C 246.193 192.556 246.903 193.718 247.427 194.516 C 247.951 195.315 248.676 196.548 249.037 197.258 C 249.398 197.968 249.901 198.911 250.155 199.355 C 250.92 200.694 251.6 202.273 252.723 205.323 C 254.79 210.935 255.521 213.59 255.987 217.182 C 256.246 219.175 256.532 221.009 256.623 221.256 C 257.486 223.592 257.397 232.631 256.459 238.065 C 256.29 239.04 256.006 240.95 255.827 242.309 C 255.461 245.09 252.433 254.475 251.108 256.935 C 250.63 257.823 249.52 259.921 248.641 261.599 C 247.761 263.277 246.727 265.045 246.343 265.528 C 245.959 266.012 245.282 266.94 244.839 267.591 C 241.518 272.467 234.012 280.069 229.547 283.078 C 224.217 286.671 215.925 291.089 213.71 291.518 C 213.177 291.621 212.379 291.886 211.935 292.107 C 211.492 292.328 209.91 292.757 208.421 293.059 C 206.932 293.362 205.141 293.812 204.441 294.059 C 202.524 294.735 191.98 295.583 188.387 295.349 C 166.998 293.96 149.724 284.448 137.079 267.097 C 134.774 263.934 131.712 258.188 130.149 254.094 C 129.527 252.463 128.79 250.626 128.513 250.01 C 125.003 242.233 124.077 223.332 126.781 214.677 C 127.114 213.613 127.486 212.028 127.609 211.155 C 127.731 210.282 128.401 208.177 129.097 206.478 C 129.792 204.778 130.523 202.952 130.72 202.419 C 132.761 196.904 138.494 188.606 144.917 181.871 C 149.157 177.425 160.368 169.681 164.194 168.557 C 164.637 168.426 166.597 167.689 168.548 166.918 C 170.5 166.146 173.462 165.213 175.131 164.843 C 176.799 164.473 178.292 164.091 178.448 163.994 C 179.946 163.069 193.718 162.661 199.454 163.373 M 166.575 173.235 C 157.578 177.438 159.989 190.062 169.804 190.142 C 177.366 190.205 181.443 180.136 175.843 175.229 C 172.881 172.634 169.445 171.895 166.575 173.235 M 170.999 177.953 C 174.26 179.258 173.87 184.502 170.446 185.361 C 166.562 186.336 164.389 180.614 167.745 178.246 C 169.101 177.289 169.294 177.271 170.999 177.953 M 151.193 188.833 C 143.61 191.66 134.448 206.354 133.319 217.499 C 132.714 223.47 140.51 227.979 145.221 224.382 C 147.311 222.787 148.675 220.081 149.222 216.452 C 149.421 215.129 150.649 212.03 151.778 210 C 152.025 209.556 152.542 208.613 152.928 207.903 C 153.314 207.194 155.269 205.016 157.273 203.065 L 160.916 199.516 L 161.13 197.258 C 161.73 190.926 156.797 186.744 151.193 188.833 M 154.783 193.577 C 157.152 194.403 156.7 197.285 153.83 199.658 C 151.835 201.307 149.412 204.275 147.998 206.801 C 146.225 209.967 146.133 210.157 146.131 210.654 C 146.13 210.925 145.892 211.484 145.603 211.897 C 145.314 212.31 144.835 213.911 144.538 215.455 C 143.592 220.38 141.297 222.105 139.014 219.606 C 137.593 218.049 137.912 215.674 140.357 209.618 C 140.693 208.786 140.968 207.914 140.968 207.68 C 140.968 205.957 146.666 198.25 150.072 195.366 C 152.741 193.106 153.071 192.981 154.783 193.577 M 107.476 207.177 C 107.771 207.71 107.853 209.788 107.785 215 C 107.69 222.184 108.061 226.538 109.22 231.871 C 110.239 236.561 110.367 237.304 110.364 238.539 C 110.353 243.214 101.275 240.184 100.328 235.19 C 99.927 233.076 99.904 213.224 100.3 211.516 C 101.122 207.974 106.213 204.897 107.476 207.177 M 278.458 206.955 C 279.656 207.363 280.168 207.803 281.177 209.293 L 282.419 211.129 L 282.419 223.548 L 282.419 235.968 L 281.452 237.305 C 279.447 240.074 274.472 241.702 272.475 240.242 C 271.81 239.756 272.164 235.076 273.054 232.589 C 274.015 229.905 274.674 222.589 274.676 214.586 C 274.678 205.681 274.684 205.669 278.458 206.955 M 256.774 258.207 C 256.774 258.462 256.629 258.761 256.452 258.871 C 256.274 258.981 256.129 258.771 256.129 258.406 C 256.129 258.041 256.274 257.742 256.452 257.742 C 256.629 257.742 256.774 257.951 256.774 258.207 M 119.241 259.435 C 119.595 259.835 120.951 261.685 122.255 263.548 C 123.558 265.411 125.874 268.46 127.402 270.323 C 130.714 274.363 130.747 274.685 128.09 276.948 C 123.13 281.17 120.046 288.68 120.44 295.577 C 120.651 299.292 119.574 302.258 118.012 302.258 C 116.667 302.258 116.186 261.6 117.507 259.583 C 118.202 258.522 118.415 258.504 119.241 259.435 M 265.185 260.081 C 265.705 262.002 265.692 300.49 265.17 302.071 L 264.802 303.187 L 263.705 301.972 C 262.103 300.199 261.914 299.408 261.971 294.716 C 262.056 287.75 259.979 282.645 255.123 277.883 C 251.693 274.52 251.694 274.53 254.36 271.308 C 256.535 268.679 257.202 267.766 260.754 262.559 C 262.573 259.893 263.646 258.821 264.584 258.732 C 264.711 258.72 264.981 259.327 265.185 260.081 M 136.649 279.879 C 137.339 280.345 138.436 281.18 139.087 281.734 C 141.703 283.961 143.776 285.427 147.366 287.59 C 150.177 289.284 151.282 290.141 151.733 290.977 L 152.336 292.097 L 151.349 293.71 C 149.217 297.192 146.332 302.638 143.765 308.025 C 142.541 310.594 142.089 310.968 140.219 310.964 C 133.681 310.947 127.891 305.828 125.637 298.072 L 124.748 295.015 L 125.312 291.943 C 126.916 283.212 132.61 277.153 136.649 279.879 M 250.85 280.299 C 258.295 286.155 259.169 298.889 252.61 305.919 C 248.065 310.789 239.952 312.573 238.853 308.943 C 238.457 307.634 233.02 296.975 231.526 294.577 C 229.655 291.574 229.731 290.63 231.935 289.507 C 232.556 289.191 233.427 288.687 233.871 288.388 C 234.315 288.088 235.331 287.434 236.129 286.934 C 238.449 285.481 240.362 284.149 242.134 282.752 C 245.821 279.845 246.309 279.509 247.09 279.339 C 248.249 279.087 249.818 279.487 250.85 280.299 M 169.165 297.227 C 175.404 298.946 176.99 299.225 183.065 299.671 C 192.207 300.342 204.21 299.82 207.61 298.602 C 209.234 298.02 215.256 296.774 216.443 296.774 C 220.708 296.774 212.755 302.638 205 305.211 C 197.167 307.81 180.014 307.174 174.27 304.071 C 173.784 303.808 172.927 303.45 172.366 303.275 C 170.011 302.539 164.839 298.315 164.839 297.128 C 164.839 296.631 167.202 296.685 169.165 297.227 M 162.097 302.433 C 162.984 303.057 164.073 303.807 164.516 304.1 C 164.96 304.394 165.685 304.937 166.129 305.309 C 166.573 305.68 168.532 306.736 170.484 307.656 C 184.934 314.466 206.902 312.705 218.4 303.816 C 221.649 301.305 222.757 301.222 223.093 303.463 C 223.424 305.672 222.977 316.332 222.434 319.169 C 222.18 320.5 221.808 323.359 221.609 325.524 C 221.41 327.688 221.029 330.103 220.762 330.89 C 220.494 331.677 220.073 333.214 219.824 334.305 C 218.009 342.276 214.874 350.573 211.212 357.097 C 208.382 362.138 207.39 363.566 206.033 364.549 L 204.742 365.484 L 191 365.482 L 177.258 365.481 L 176.076 364.395 C 175.427 363.799 174.588 362.747 174.214 362.058 C 173.839 361.37 173.173 360.226 172.732 359.516 C 172.291 358.806 171.568 357.573 171.124 356.774 C 170.68 355.976 170.188 355.105 170.032 354.839 C 169.29 353.581 167.742 350.273 167.742 349.947 C 167.742 349.745 167.393 348.84 166.966 347.935 C 165.812 345.487 164.588 341.997 164.208 340.065 C 164.022 339.124 163.67 337.963 163.425 337.484 C 163.18 337.005 162.873 335.815 162.745 334.839 C 162.616 333.863 162.24 332.266 161.909 331.29 C 161.578 330.315 161.157 327.919 160.973 325.968 C 160.789 324.016 160.41 321.621 160.13 320.645 C 159.463 318.321 159.069 303.072 159.648 301.99 C 160.133 301.085 160.192 301.095 162.097 302.433 M 154.493 307.903 C 154.575 314.719 155.113 322.196 155.586 323.12 C 155.844 323.622 156.159 325.411 156.286 327.097 C 156.414 328.782 156.784 330.926 157.108 331.86 C 157.432 332.795 157.787 334.391 157.897 335.409 C 158.007 336.426 158.436 338.202 158.851 339.355 C 159.265 340.508 159.754 342.032 159.939 342.742 C 160.123 343.452 160.733 345.266 161.295 346.774 C 161.857 348.282 162.606 350.315 162.96 351.29 C 163.315 352.266 163.789 353.282 164.015 353.548 C 164.24 353.815 164.57 354.468 164.748 355 C 164.926 355.533 165.455 356.533 165.923 357.223 C 166.391 357.913 166.774 358.616 166.774 358.786 C 166.774 358.955 167.051 359.482 167.389 359.957 C 167.726 360.431 168.259 361.601 168.571 362.557 L 169.139 364.294 L 168.405 364.889 C 167.816 365.366 167.11 365.484 164.842 365.484 C 161.542 365.484 161.42 365.397 160.924 362.698 C 159.019 352.342 148.992 348.595 143.027 356.01 C 141.714 357.642 141.597 357.968 140.65 362.665 C 140.186 364.961 139.2 365.703 137.541 365.005 C 135.914 364.321 135.639 360.305 136.746 353.387 C 137.087 351.258 137.529 347.958 137.728 346.054 C 137.927 344.149 138.297 342.002 138.552 341.281 C 138.806 340.56 139.1 339.215 139.206 338.292 C 139.311 337.368 139.73 335.452 140.136 334.032 C 140.542 332.613 141.101 330.581 141.377 329.516 C 142.613 324.763 145.168 317.273 146.991 313.065 C 150.289 305.449 151.654 302.87 152.742 302.204 L 153.71 301.611 L 154.082 303.144 C 154.287 303.987 154.472 306.129 154.493 307.903 M 230.37 302.985 C 231.135 303.634 235.007 311.61 235.655 313.871 C 235.782 314.315 236.29 315.55 236.785 316.617 C 237.589 318.355 239.134 323.077 241.004 329.516 C 241.365 330.758 241.934 333.081 242.27 334.677 C 242.605 336.274 243.243 339.177 243.688 341.129 C 244.91 346.49 245.537 352.474 245.009 353.738 C 244.448 355.08 243.915 355.161 235.648 355.161 L 228.796 355.161 L 226.559 356.28 C 224.243 357.439 223.226 358.707 223.226 360.437 C 223.226 363.977 221.679 365.493 218.109 365.452 C 212.764 365.39 212.512 364.844 215.34 359.455 C 216.347 357.537 217.3 355.807 217.457 355.61 C 217.615 355.414 218.019 354.47 218.355 353.514 C 218.691 352.557 219.322 350.903 219.759 349.839 C 222.995 341.945 224.864 335.26 225.964 327.654 C 226.201 326.017 226.618 323.371 226.891 321.774 C 227.164 320.177 227.558 315.605 227.766 311.613 C 228.237 302.575 228.573 301.461 230.37 302.985 M 125.742 308.54 C 127.804 311.162 131.821 313.76 135.993 315.17 C 140.053 316.542 140.455 317.267 139.012 320.62 C 138.317 322.237 137.478 325.159 136.459 329.516 C 136.127 330.935 135.645 332.605 135.389 333.226 C 135.132 333.847 134.828 335.153 134.713 336.129 C 134.598 337.105 134.216 339.21 133.863 340.806 C 133.511 342.403 133.067 344.545 132.878 345.566 C 132.305 348.66 131.281 349.205 126.15 349.149 C 118.508 349.064 111.301 346.478 110.546 343.548 C 109.889 341.002 112.347 330.357 115.648 321.452 C 116.108 320.21 116.892 318.032 117.39 316.613 C 120.611 307.434 123.031 305.094 125.742 308.54 M 260.925 307.998 C 261.47 308.848 262.141 310.178 262.414 310.954 C 262.688 311.729 263.039 312.521 263.194 312.714 C 263.537 313.141 265.203 317.196 266.121 319.839 C 267.972 325.168 268.989 328.333 269.178 329.355 C 269.294 329.976 269.726 331.645 270.14 333.065 C 272.759 342.05 272.805 343.887 270.452 345.506 C 266.768 348.04 257.942 349.907 253.355 349.121 C 250.051 348.555 249.551 347.906 248.882 343.315 C 247.983 337.15 246.916 332.675 244.091 323.226 C 242.157 316.757 242.14 316.849 245.484 315.562 C 251.293 313.327 252.597 312.566 255.323 309.818 C 259.232 305.878 259.507 305.789 260.925 307.998 M 188.71 316.734 C 181.534 317.896 176.837 326.215 179.469 333.102 C 184.111 345.251 199.752 343.941 203.523 331.088 L 204.197 328.789 L 203.519 326.572 C 201.317 319.368 195.658 315.609 188.71 316.734 M 194.387 322.108 C 201.255 325.661 199.65 335.816 192.093 336.625 C 187.742 337.091 185.46 335.41 184.033 330.686 C 182.24 324.752 188.875 319.256 194.387 322.108 M 273.254 352.326 C 275.504 357.758 269.737 361.007 257.69 361.093 C 251.577 361.137 251.153 360.931 250.89 357.802 C 250.607 354.421 251.404 353.871 256.58 353.871 C 261.222 353.871 265.804 352.937 269.673 351.202 C 271.722 350.283 272.51 350.531 273.254 352.326 M 112.156 351.002 C 118.206 353.377 119.335 353.626 125 353.832 L 130.484 354.032 L 131.017 355.161 C 131.834 356.892 131.483 359.859 130.376 360.584 C 127.285 362.609 112.738 360.345 109.435 357.325 C 107.979 355.993 108.695 351.201 110.4 350.873 C 110.801 350.796 111.156 350.713 111.189 350.689 C 111.221 350.665 111.657 350.806 112.156 351.002 M 153.476 357.892 C 155.721 359.781 155.973 361.419 155.927 373.871 C 155.891 383.453 155.813 385.134 155.364 385.968 C 155.077 386.5 154.842 387.097 154.841 387.295 C 154.822 390.763 148.08 390.482 146.2 386.935 C 145.325 385.284 145.406 361.619 146.293 359.843 C 147.641 357.145 151.381 356.129 153.476 357.892 M 233.848 360.85 C 234.494 361.671 234.516 362.063 234.516 372.438 L 234.516 383.176 L 233.681 384.169 C 232.352 385.749 229.164 385.335 228.159 383.453 C 227.505 382.226 227.187 364.261 227.785 362.344 C 228.53 359.958 232.397 359.005 233.848 360.85 M 245.165 360.583 C 246.159 361.388 246.457 364.752 246.459 375.161 L 246.46 383.387 L 245.483 384.274 C 244.047 385.578 241.458 385.555 240.034 384.225 L 239.032 383.29 L 239.04 373.5 C 239.048 363.167 239.218 361.475 240.342 360.565 C 241.307 359.783 244.191 359.795 245.165 360.583 M 114.516 364.732 C 117.623 365.631 121.45 366.115 125.516 366.123 C 131.191 366.135 130.88 365.314 131.086 380.847 C 131.272 394.9 131.28 394.839 129.068 394.839 C 125.726 394.839 123.884 391.795 123.873 386.258 C 123.868 383.397 122.506 381.748 120.792 382.528 C 119.058 383.319 118.697 385.663 119.52 390.779 C 120.231 395.199 119.616 396.326 116.779 395.807 C 112.592 395.042 109.037 383.899 108.484 369.805 C 108.214 362.913 108.217 362.91 114.516 364.732 M 273.888 365.053 C 274.347 366.441 274.071 372.467 273.388 375.968 C 273.146 377.21 272.788 379.491 272.593 381.038 C 272.397 382.585 272.021 384.462 271.757 385.209 C 271.493 385.957 271.054 387.432 270.781 388.487 C 270.507 389.542 270.092 390.713 269.858 391.089 C 269.623 391.466 269.344 392.155 269.236 392.62 C 268.718 394.864 265.187 396.534 263.205 395.473 C 262.483 395.087 262.327 392.301 262.915 390.32 C 263.866 387.118 263.163 382.911 261.593 382.413 C 259.585 381.776 258.791 383.024 258.512 387.258 C 258.124 393.139 254.727 396.725 251.974 394.16 L 251.245 393.481 L 251.348 380.62 L 251.452 367.759 L 252.189 367.025 C 252.837 366.379 253.208 366.299 255.253 366.363 C 258.242 366.457 263.911 365.709 269.032 364.546 C 273.599 363.508 273.371 363.484 273.888 365.053 M 196.514 370.319 L 220.932 370.323 L 221.821 371.087 C 223.261 372.326 222.925 375.033 221.197 376.112 C 220.622 376.472 215.334 376.543 191.298 376.517 L 162.097 376.485 L 161.499 375.746 C 160.814 374.9 160.86 371.592 161.568 370.882 C 161.972 370.477 168.748 369.989 170.968 370.205 C 171.589 370.266 183.085 370.317 196.514 370.319 M 140.628 372.501 C 141.252 374.746 140.388 376.129 138.362 376.129 C 135.586 376.129 134.793 371.616 137.419 370.762 C 138.999 370.248 140.181 370.889 140.628 372.501 M 219.29 381.276 C 221.35 381.293 222.256 382.081 223.084 384.575 C 224.586 389.097 226.282 389.774 236.661 389.991 C 245.659 390.18 245.887 390.236 246.226 392.358 C 246.529 394.247 245.861 403.96 244.459 418.065 C 243.776 424.93 245.278 424.329 225.806 425.531 C 215.879 426.143 202.44 424.759 202.11 423.09 C 201.698 420.998 201.583 419.553 201.284 412.622 C 201.063 407.51 200.794 404.512 200.468 403.517 C 200.2 402.702 199.779 400.498 199.533 398.62 C 197.99 386.864 184.789 386.454 183.064 398.108 C 182.818 399.77 182.41 401.71 182.157 402.419 C 181.849 403.284 181.63 405.892 181.494 410.323 C 181.071 424.134 180.918 424.428 173.955 424.861 C 171.514 425.013 168.282 425.287 166.774 425.47 C 162.908 425.938 155.951 425.881 151.774 425.348 C 149.823 425.099 146.484 424.797 144.355 424.677 C 138.475 424.347 138.276 424.105 137.757 416.689 C 137.563 413.915 137.114 409.134 136.76 406.065 C 135.884 398.488 135.596 383.434 136.306 382.351 C 137.84 380.008 140.488 381.772 140.977 385.462 C 142.657 398.153 159.018 397.639 160.816 384.839 C 161.239 381.83 161.584 381.441 164.032 381.217 C 164.774 381.15 210.271 381.197 219.29 381.276 M 181.613 450.225 C 181.613 450.841 181.855 452.253 182.15 453.361 C 183.374 457.956 180.615 461.065 175.162 461.234 C 170.189 461.389 169.032 460.605 170.484 458.065 C 170.737 457.621 170.95 456.887 170.956 456.434 C 170.998 453.411 175.689 448.643 179.194 448.062 C 180.785 447.799 181.613 448.539 181.613 450.225 M 144.516 463.71 L 144.516 466.129 L 146.774 466.129 L 149.032 466.129 L 149.032 463.71 L 149.032 461.29 L 146.774 461.29 L 144.516 461.29 L 144.516 463.71 M 231.297 462.823 C 230.279 463.335 228.71 465.173 228.71 465.854 C 228.71 466.005 230.96 466.129 233.71 466.129 C 236.46 466.129 238.71 466.037 238.71 465.925 C 238.71 463.467 233.966 461.482 231.297 462.823" stroke-linecap="round" />
</g>
		<g transform="matrix(1 0 0 1 -1.12 161.39)" id="path4"  >
<path style="stroke: none; stroke-width: 1; stroke-dasharray: none; stroke-linecap: butt; stroke-dashoffset: 0; stroke-linejoin: miter; stroke-miterlimit: 4; fill: rgb(108,96,28); fill-rule: evenodd; opacity: 1;" vector-effect="non-scaling-stroke"  transform=" translate(-199.42, -473.23)" d="M 13.937 455.4 C 15.127 455.462 17.16 455.462 18.454 455.401 C 19.748 455.34 18.774 455.289 16.29 455.289 C 13.806 455.288 12.748 455.338 13.937 455.4 M 36.384 455.4 C 37.499 455.464 39.241 455.463 40.255 455.399 C 41.268 455.335 40.355 455.284 38.226 455.284 C 36.097 455.285 35.268 455.337 36.384 455.4 M 54.618 455.403 C 58.312 455.455 64.263 455.455 67.844 455.403 C 71.425 455.351 68.403 455.309 61.129 455.309 C 53.855 455.309 50.925 455.351 54.618 455.403 M 84.113 455.402 C 86.464 455.458 90.31 455.458 92.661 455.402 C 95.012 455.347 93.089 455.302 88.387 455.302 C 83.685 455.302 81.762 455.347 84.113 455.402 M 114.258 455.548 C 113.969 455.838 113.89 458.793 113.945 467.242 L 114.02 478.548 L 114.187 467.097 L 114.355 455.645 L 119.355 455.471 L 124.355 455.297 L 119.5 455.229 C 116.074 455.181 114.531 455.275 114.258 455.548 M 137.984 455.4 C 139.093 455.463 140.907 455.463 142.016 455.4 C 143.125 455.337 142.218 455.286 140 455.286 C 137.782 455.286 136.875 455.337 137.984 455.4 M 151.129 455.378 C 154.993 455.612 159.606 455.626 159.467 455.403 C 159.384 455.27 157.112 455.188 154.416 455.221 C 151.721 455.254 150.242 455.324 151.129 455.378 M 192.016 455.396 C 192.681 455.466 193.77 455.466 194.435 455.396 C 195.101 455.327 194.556 455.27 193.226 455.27 C 191.895 455.27 191.351 455.327 192.016 455.396 M 257.5 455.401 C 258.698 455.463 260.657 455.463 261.855 455.401 C 263.052 455.338 262.073 455.288 259.677 455.288 C 257.282 455.288 256.302 455.338 257.5 455.401 M 277.192 455.401 C 278.575 455.462 280.753 455.462 282.031 455.401 C 283.309 455.339 282.177 455.29 279.516 455.29 C 276.855 455.291 275.809 455.341 277.192 455.401 M 367.177 455.403 C 371.214 455.454 377.819 455.454 381.855 455.403 C 385.891 455.352 382.589 455.31 374.516 455.31 C 366.444 455.31 363.141 455.352 367.177 455.403 M 359.171 455.91 C 359.081 456.144 359.05 457.778 359.103 459.539 L 359.198 462.742 L 359.357 459.112 C 359.514 455.52 359.489 455.082 359.171 455.91 M 42.408 472.903 C 42.408 482.395 42.449 486.278 42.5 481.532 C 42.55 476.786 42.55 469.02 42.5 464.274 C 42.449 459.528 42.408 463.411 42.408 472.903 M 11.118 473.065 C 11.118 482.468 11.159 486.268 11.209 481.51 C 11.26 476.751 11.26 469.058 11.209 464.413 C 11.159 459.768 11.118 463.661 11.118 473.065 M 33.623 464.152 C 33.552 471.895 33.518 472.313 32.984 471.894 C 32.469 471.491 32.46 471.503 32.873 472.03 C 33.75 473.146 33.882 471.99 33.79 464.01 L 33.698 455.968 L 33.623 464.152 M 79.182 473.065 C 79.183 482.468 79.224 486.268 79.274 481.51 C 79.324 476.751 79.324 469.058 79.274 464.413 C 79.224 459.768 79.182 463.661 79.182 473.065 M 159.792 458.871 C 159.791 460.468 159.845 461.162 159.913 460.413 C 159.981 459.664 159.982 458.358 159.915 457.51 C 159.848 456.662 159.793 457.274 159.792 458.871 M 284.989 473.065 C 284.989 482.468 285.03 486.268 285.08 481.51 C 285.131 476.751 285.131 469.058 285.08 464.413 C 285.03 459.768 284.989 463.661 284.989 473.065 M 106.452 458.165 C 106.452 458.221 106.923 458.693 107.5 459.214 L 108.548 460.161 L 107.601 459.113 C 106.718 458.136 106.452 457.916 106.452 458.165 M 362.031 463.143 C 363.414 463.204 365.591 463.204 366.87 463.142 C 368.148 463.081 367.016 463.032 364.355 463.032 C 361.694 463.033 360.648 463.083 362.031 463.143 M 382.353 463.143 C 383.737 463.204 385.914 463.204 387.192 463.142 C 388.47 463.081 387.339 463.032 384.677 463.032 C 382.016 463.033 380.97 463.083 382.353 463.143 M 58.28 463.441 C 57.983 463.738 58.007 468.636 58.306 468.821 C 58.44 468.903 58.548 467.678 58.548 466.098 C 58.548 464.518 58.536 463.226 58.522 463.226 C 58.507 463.226 58.398 463.323 58.28 463.441 M 253.696 476.774 C 253.696 484.137 253.738 487.149 253.79 483.468 C 253.842 479.786 253.842 473.762 253.79 470.081 C 253.738 466.399 253.696 469.411 253.696 476.774 M 159.744 474.094 C 159.708 478.741 159.786 482.61 159.919 482.693 C 160.052 482.775 160.124 480.28 160.079 477.147 C 159.926 466.629 159.812 465.586 159.744 474.094 M 68.005 469.282 C 68.323 469.506 68.404 470.475 68.327 473.162 C 68.272 475.133 68.34 476.63 68.479 476.49 C 68.976 475.99 68.598 469.259 68.065 469.115 C 67.685 469.012 67.672 469.048 68.005 469.282 M 91.863 469.269 C 92.622 469.337 93.783 469.336 94.444 469.267 C 95.105 469.197 94.484 469.142 93.065 469.143 C 91.645 469.144 91.105 469.201 91.863 469.269 M 227.861 472.903 C 227.861 474.766 227.915 475.528 227.98 474.597 C 228.045 473.665 228.045 472.141 227.98 471.21 C 227.915 470.278 227.861 471.04 227.861 472.903 M 288.816 473.065 C 288.817 474.306 288.875 474.775 288.945 474.106 C 289.015 473.436 289.014 472.42 288.942 471.848 C 288.871 471.275 288.814 471.823 288.816 473.065 M 322.995 473.065 C 322.998 473.952 323.061 474.276 323.135 473.786 C 323.209 473.296 323.207 472.57 323.13 472.173 C 323.054 471.776 322.993 472.177 322.995 473.065 M 329.677 473.387 C 330.279 474.008 330.844 474.516 330.933 474.516 C 331.022 474.516 330.602 474.008 330 473.387 C 329.398 472.766 328.833 472.258 328.744 472.258 C 328.656 472.258 329.076 472.766 329.677 473.387 M 237.339 472.821 C 239.335 472.878 242.601 472.878 244.597 472.821 C 246.593 472.765 244.96 472.719 240.968 472.719 C 236.976 472.719 235.343 472.765 237.339 472.821 M 249.495 482.097 C 249.494 486.532 249.54 488.392 249.596 486.228 C 249.651 484.065 249.652 480.436 249.596 478.164 C 249.54 475.892 249.495 477.661 249.495 482.097 M 107.419 474.617 C 107.419 474.673 107.891 475.144 108.468 475.665 L 109.516 476.613 L 108.569 475.565 C 107.686 474.587 107.419 474.368 107.419 474.617 M 193.479 475.722 C 194.416 475.787 195.868 475.787 196.704 475.721 C 197.541 475.654 196.774 475.601 195 475.602 C 193.226 475.603 192.541 475.657 193.479 475.722 M 266.29 476.668 C 270.209 476.902 274.122 476.916 273.983 476.694 C 273.901 476.56 271.773 476.478 269.255 476.511 C 266.737 476.544 265.403 476.614 266.29 476.668 M 58.28 476.989 C 57.983 477.286 58.007 482.507 58.306 482.692 C 58.44 482.774 58.548 481.476 58.548 479.808 C 58.548 478.139 58.536 476.774 58.522 476.774 C 58.507 476.774 58.398 476.871 58.28 476.989 M 144.268 478.71 C 144.268 479.331 144.335 479.585 144.416 479.274 C 144.497 478.964 144.497 478.456 144.416 478.145 C 144.335 477.835 144.268 478.089 144.268 478.71 M 99.107 480 C 99.107 480.621 99.173 480.875 99.255 480.565 C 99.336 480.254 99.336 479.746 99.255 479.435 C 99.173 479.125 99.107 479.379 99.107 480 M 236.28 479.266 C 237.788 479.336 238.966 479.545 239.128 479.773 C 239.323 480.048 239.366 480.02 239.273 479.677 C 239.17 479.298 238.553 479.189 236.426 479.171 L 233.71 479.148 L 236.28 479.266 M 110.419 480.968 C 110.419 481.944 110.48 482.343 110.554 481.855 C 110.628 481.367 110.628 480.569 110.554 480.081 C 110.48 479.593 110.419 479.992 110.419 480.968 M 75.279 486.613 C 75.28 488.387 75.334 489.072 75.399 488.134 C 75.465 487.197 75.464 485.745 75.398 484.909 C 75.332 484.072 75.278 484.839 75.279 486.613 M 339.597 483.782 C 340.173 483.853 341.117 483.853 341.694 483.782 C 342.27 483.71 341.798 483.652 340.645 483.652 C 339.492 483.652 339.02 483.71 339.597 483.782 M 326.129 485.585 C 326.129 485.64 326.601 486.112 327.177 486.633 L 328.226 487.581 L 327.278 486.532 C 326.395 485.555 326.129 485.336 326.129 485.585 M 127.992 491.204 C 128.751 491.272 129.912 491.272 130.573 491.202 C 131.234 491.133 130.613 491.077 129.194 491.078 C 127.774 491.079 127.234 491.136 127.992 491.204 M 232.183 491.202 C 232.763 491.273 233.634 491.272 234.119 491.198 C 234.603 491.125 234.129 491.066 233.065 491.068 C 232 491.07 231.603 491.13 232.183 491.202 M 304.751 491.201 C 305.324 491.272 306.34 491.273 307.009 491.203 C 307.678 491.133 307.21 491.075 305.968 491.074 C 304.726 491.072 304.178 491.129 304.751 491.201 M 340.081 491.203 C 340.746 491.272 341.835 491.272 342.5 491.203 C 343.165 491.133 342.621 491.076 341.29 491.076 C 339.96 491.076 339.415 491.133 340.081 491.203" stroke-linecap="round" />
</g>
</g>
</g>
</svg>